<?xml version="1.0" standalone="no"?><!DOCTYPE svg PUBLIC "-//W3C//DTD SVG 1.1//EN" "http://www.w3.org/Graphics/SVG/1.1/DTD/svg11.dtd"><svg t="1596622378782" class="icon" viewBox="0 0 1024 1024" version="1.1" xmlns="http://www.w3.org/2000/svg" p-id="2280" xmlns:xlink="http://www.w3.org/1999/xlink" width="200" height="200"><defs><style type="text/css"></style></defs><path d="M420.575778 754.287185c85.539188 0 166.263721-31.417547 229.042533-88.756463l274.137591 274.128381c2.739391 2.739391 6.329149 4.109598 9.917884 4.109598s7.17747-1.370207 9.917884-4.109598c5.478781-5.478781 5.478781-14.355963 0-19.834744L669.285233 645.525086c123.846656-133.151579 121.31909-342.045213-8.290827-471.662293-64.24521-64.21758-149.626809-99.587136-240.418628-99.587136-90.806145 0-176.187745 35.368532-240.418628 99.587136-132.558062 132.565225-132.558062 348.273055 0 480.83828C244.388033 718.91763 329.769632 754.287185 420.575778 754.287185zM199.991893 193.697537c58.930157-58.916854 137.270387-91.367941 220.583884-91.367941 83.299171 0 161.640424 32.451086 220.583884 91.367941 121.613802 121.627105 121.613802 319.540663 0 441.167768-58.94346 58.916854-137.284713 91.367941-220.583884 91.367941-83.313497 0-161.653727-32.451086-220.583884-91.367941C78.378092 513.238201 78.378092 315.324642 199.991893 193.697537z" p-id="2281"></path></svg>